<svg height="512pt" viewBox="0 0 512 512" width="512pt" xmlns="http://www.w3.org/2000/svg"><path d="m512 256c0 141.386719-114.613281 256-256 256s-256-114.613281-256-256 114.613281-256 256-256 256 114.613281 256 256zm0 0" fill="#5d3369"/><path d="m194.6875 261.851562c-37.273438.003907-74.058594-15.28125-103.042969-43.28125-34.148437-32.984374-52.097656-79.191406-48.015625-123.605468 1.5-16.285156 8.875-30.546875 20.769532-40.152344 12.539062-10.117188 29.140624-14.511719 46.746093-12.378906l-3.777343 31.117187c-9.121094-1.101562-17.390626.902344-23.277344 5.65625-5.324219 4.296875-8.519532 10.738281-9.246094 18.628907-3.222656 35.039062 11.203125 71.746093 38.578125 98.191406 26.535156 25.632812 60.945313 37.898437 94.402344 33.648437l3.949219 31.097657c-5.683594.71875-11.394532 1.078124-17.085938 1.078124zm0 0" fill="#ebae44"/><path d="m314.800781 261.855469c-5.707031 0-11.414062-.359375-17.117187-1.082031l3.949218-31.097657c33.605469 4.265625 68.152344-8.089843 94.773438-33.90625 27.265625-26.441406 41.550781-63.03125 38.210938-97.875-.886719-9.257812-5.742188-14.9375-9.660157-18.070312-6.285156-5.027344-14.964843-7.402344-23.226562-6.355469l-3.941407-31.097656c16.75-2.125 33.785157 2.605468 46.746094 12.972656 12.21875 9.769531 19.777344 23.820312 21.285156 39.558594 4.242188 44.242187-13.554687 90.359375-47.59375 123.371094-29.066406 28.1875-66 43.578124-103.425781 43.582031zm0 0" fill="#eb9444"/><path d="m209.800781 275.695312h87.675781v116.871094h-87.675781zm0 0" fill="#ffbd4a"/><path d="m245.027344 275.695312h52.445312v116.871094h-52.445312zm0 0" fill="#fc9f49"/><path d="m265.921875 290.386719h-23.242187c-73.914063 0-133.835938-59.917969-133.683594-133.746094l-.132813-101.730469 290.898438-.089844v101.734376c0 73.914062-59.921875 133.832031-133.839844 133.832031zm0 0" fill="#ffbd4a"/><path d="m399.757812 54.816406v101.730469c0 73.914063-59.914062 133.839844-133.832031 133.839844h-23.246093c-.703126 0-1.402344-.007813-2.101563-.019531 72.945313-1.117188 131.730469-60.605469 131.730469-133.820313v-101.730469zm0 0" fill="#fc9f49"/><path d="m376.0625 447.777344h-244.847656c25.554687-40.703125 70.828125-67.695313 122.421875-67.695313 51.597656 0 96.867187 26.992188 122.425781 67.695313zm0 0" fill="#ffbd4a"/><path d="m376.058594 447.78125h-26.46875c-23.339844-37.1875-63.152344-62.925781-109.179688-67.09375 4.355469-.40625 8.765625-.605469 13.226563-.605469 51.597656 0 96.863281 26.988281 122.421875 67.699219zm0 0" fill="#fc9f49"/><path d="m372.960938 461.085938h-237.320313c-11.980469 0-21.695313-9.710938-21.695313-21.695313v-3.765625c0-11.984375 9.714844-21.695312 21.695313-21.695312h237.320313c11.984374 0 21.695312 9.710937 21.695312 21.695312v3.765625c0 11.984375-9.710938 21.695313-21.695312 21.695313zm0 0" fill="#f88049"/><path d="m394.65625 435.628906v3.761719c0 11.984375-9.714844 21.691406-21.691406 21.691406h-55.253906c11.976562 0 21.691406-9.707031 21.691406-21.691406v-3.761719c0-11.984375-9.714844-21.703125-21.691406-21.703125h55.253906c11.976562 0 21.691406 9.71875 21.691406 21.703125zm0 0" fill="#cf6b3c"/><path d="m407.359375 77.847656h-304.78125c-11.703125 0-21.1875-9.488281-21.1875-21.1875v-3.679687c0-11.699219 9.484375-21.1875 21.1875-21.1875h304.78125c11.699219 0 21.183594 9.488281 21.183594 21.1875v3.679687c0 11.699219-9.484375 21.1875-21.183594 21.1875zm0 0" fill="#ffbd4a"/><path d="m428.542969 52.976562v3.6875c0 11.691407-9.488281 21.179688-21.191407 21.179688h-22.691406c11.699219 0 21.1875-9.488281 21.1875-21.179688v-3.6875c0-11.691406-9.488281-21.179687-21.1875-21.179687h22.691406c11.703126 0 21.191407 9.488281 21.191407 21.179687zm0 0" fill="#fc9f49"/><path d="m310.796875 343.523438h-112.988281c-6.582032 0-11.917969-5.332032-11.917969-11.914063v-2.070313c0-6.582031 5.335937-11.917968 11.917969-11.917968h112.988281c6.582031 0 11.917969 5.335937 11.917969 11.917968v2.070313c0 6.578125-5.335938 11.914063-11.917969 11.914063zm0 0" fill="#ffbd4a"/><path d="m322.714844 329.539062v2.070313c0 6.582031-5.335938 11.910156-11.921875 11.910156h-25.234375c6.574218 0 11.914062-5.328125 11.914062-11.910156v-2.070313c0-6.582031-5.339844-11.921874-11.914062-11.921874h25.234375c6.585937 0 11.921875 5.339843 11.921875 11.921874zm0 0" fill="#fc9f49"/><path d="m310.335938 144.195312h-130.613282c-4.328125 0-7.835937-3.507812-7.835937-7.835937s3.507812-7.835937 7.835937-7.835937h130.613282c4.328124 0 7.835937 3.507812 7.835937 7.835937s-3.507813 7.835937-7.835937 7.835937zm0 0" fill="#cf902f"/><g fill="#edf2e3"><path d="m166.625 270.300781c-13.8125 4.882813-24.761719 15.820313-29.664062 29.621094-.902344 2.53125-4.523438 2.53125-5.425782 0-4.902344-13.804687-15.851562-24.738281-29.664062-29.621094-2.574219-.910156-2.574219-4.539062 0-5.449219 13.8125-4.878906 24.761718-15.816406 29.664062-29.617187.902344-2.535156 4.523438-2.535156 5.425782 0 4.902343 13.800781 15.851562 24.738281 29.664062 29.617187 2.574219.910157 2.574219 4.539063 0 5.449219zm0 0"/><path d="m383.054688 354.125c-11.460938 4.050781-20.550782 13.125-24.617188 24.582031-.746094 2.101563-3.753906 2.101563-4.5 0-4.070312-11.457031-13.160156-20.53125-24.621094-24.582031-2.140625-.757812-2.140625-3.769531 0-4.523438 11.460938-4.050781 20.550782-13.125 24.621094-24.578124.746094-2.105469 3.753906-2.105469 4.5 0 4.070312 11.453124 13.15625 20.527343 24.617188 24.578124 2.136718.757813 2.136718 3.765626 0 4.523438zm0 0"/><path d="m312.832031 68.832031c-9.074219 3.210938-16.273437 10.398438-19.496093 19.46875-.589844 1.664063-2.972657 1.664063-3.5625 0-3.222657-9.070312-10.417969-16.257812-19.496094-19.46875-1.691406-.597656-1.691406-2.980469 0-3.578125 9.074218-3.207031 16.273437-10.394531 19.496094-19.464844.589843-1.664062 2.972656-1.664062 3.5625 0 3.222656 9.070313 10.421874 16.257813 19.496093 19.464844 1.691407.597656 1.691407 2.980469 0 3.578125zm0 0"/></g></svg>